<svg xmlns="http://www.w3.org/2000/svg" width="122" height="122" viewBox="0 0 122 122"><defs><style>.a{fill:#fff;opacity:0;}.b{fill:#d49e24;}</style></defs><g transform="translate(-732.242 -530.242)"><rect class="a" width="122" height="122" transform="translate(732.242 530.242)"/><g transform="translate(734.06 540.422)"><path class="b" d="M12.84,42.355l.019,0a44.294,44.294,0,0,0,6.88,1.15,55.2,55.2,0,0,0,10.891-.131c1.582-.168,3.163-.392,4.745-.662A89.036,89.036,0,0,0,49.39,39.2c.028-.009,2.7-.92,5.923-2.38A52.285,52.285,0,0,0,61.12,33.75,13.427,13.427,0,0,0,63.463,32a8.214,8.214,0,0,0,1.84-3.123c.087-.233.165-.469.236-.708.833-3.552-.454-5.357-.454-5.357-1.038-2.318-7.831-2.237-7.831-2.237C49.545,20.413,50.3,16.1,50.3,16.1a26.579,26.579,0,0,1,9.549-9.829c.9-.547,2.206-1.308,3.319-1a2.649,2.649,0,0,1,1.4,1.165l1.631-2.517A2.152,2.152,0,0,0,66.1,1.4s-.006-.009-.012-.012A3.606,3.606,0,0,0,63.762.016a2.257,2.257,0,0,0-1.057.115c-2.663.8-7.725,5.7-7.725,5.7C45.179,16.271,48.961,22.5,48.961,22.5c2.132,4.049,9.269,3.3,9.269,3.3,3.965.143,5.248.988,5.662,1.541,0,0,0,.006.006.009a1.928,1.928,0,0,1,.183.4v.009c0,.028.006.047.006.059v.012c-.028.025-.059.05-.087.078l-.031.022a67.393,67.393,0,0,1-12.24,5.82,87.186,87.186,0,0,1-18.915,4.531c-.314.04-.631.078-.945.112-1.917.214-3.825.345-5.736.376-1.759.031-3.521-.022-5.3-.165A68.442,68.442,0,0,1,.846,33.937c-.435-.174-.677-.193-.792-.053-.127.155.009.388.037.432l.016.025,12.725,8.011Z" transform="translate(0 11.711)"/><path class="b" d="M61.326,9.477S60.7,9.7,59.62,11.829c0,0-1.56,3.39-3.841,4.751,0,0-3.695,2.1-6.274-.463a3.538,3.538,0,0,1-.609-3.452s.36-1.137-.74-.606c0,0-1.485.78-3.024,1.547a48.649,48.649,0,0,1-5.22,2.11,12.364,12.364,0,0,0-2.29-3.971C31.964,5.692,28.207,14,28.207,14c-1.622,4.419.615,6.488,1.523,7.113,0,0,2.735,1.464,7.837.106.342-.09.715-.214,1.1-.345a10.44,10.44,0,0,1,.562,2.042c-.162.183-.32.37-.479.55-5.7,6.407-10.1,8.66-10.1,8.66C18.487,38.578,13.72,33.87,13.72,33.87c-2.809-2.43-2.542-7.862-2.02-11.336a18.148,18.148,0,0,0,1.718-1.42S21.6,13.333,24.2,10.881c0,0,6.4-6.056,11.46-6.3,0,0,5.556-.752,8.207,3.853,0,0,1.3-3.6.649-4.605-4.183-6.435-12.51-2.8-12.51-2.8C27.352,2.622,20.1,9.927,20.1,9.927c-2.352,2.5-8.241,7.622-8.241,7.622s-4.568,3.884-7.42,2.933c0,0-5.354-.5-2.8-8.707A19.322,19.322,0,0,1,3.183,8.224c.538-.842.317-.907.009-.8a1.53,1.53,0,0,0-.783.656A16.828,16.828,0,0,0,.016,17.2a8.568,8.568,0,0,0,4.692,7.284c1.864.814,4.13-.118,5.882-1.209-2.368,8.558.736,13.262.736,13.262,3.766,5.826,10.982,3.347,10.982,3.347,7.573-2.418,13.781-9.164,13.781-9.164a17.258,17.258,0,0,0,3.176-3.6A8.237,8.237,0,0,0,40.8,22.994a13.989,13.989,0,0,0,.171-2.937,53.521,53.521,0,0,0,5.895-2.71s.227-.152.152.36c0,0-.152,4.307,3.928,4.916a6.063,6.063,0,0,0,5.976-2.675s1.221-1.874,1.768-2.921a5.8,5.8,0,0,0,4.549,3.794c5.618.948,6.187-5.73,6.187-5.73a9.274,9.274,0,0,0-1.9-7.361l-1.137,5.2A19.43,19.43,0,0,1,68,15.092s-1.215.966-4.611.19a5.037,5.037,0,0,1-2.076-1.321s-.923-.9-.009-2.756C61.307,11.2,62.218,8.908,61.326,9.477Zm-30.645,5.5S33.1,12.83,36.212,16.67c-.37.059-.74.109-1.1.137C35.112,16.807,29.061,17.363,30.68,14.977Z" transform="translate(33.513 47.942)"/><path class="b" d="M3.089,0,0,3.089,2.744,5.83,0,8.573l2.744,2.744L0,14.061,3.089,17.15l3.089-3.089L3.434,11.317,6.178,8.573,3.434,5.83,6.178,3.089Z" transform="translate(85.482 39.365)"/><path class="b" d="M12.959,14.34c-1.6,1.411-8.912,6.588-12.414,9.046-1.144.8-.134.395-.134.395l5.982-3.157a38.55,38.55,0,0,0,13.334-11.3A11.791,11.791,0,0,0,20.535,8.2a5.3,5.3,0,0,1,1.725,1.855c1.094-2,.684-2.408.684-2.408A7.592,7.592,0,0,0,21.53,6.3a12.729,12.729,0,0,0,.935-3.331C22.192-1.175,19.594.229,19.594.229a5.114,5.114,0,0,0-2.94,3.878c.273,1.672,2.666,3.275,2.666,3.275.121.075.236.146.348.218A49.66,49.66,0,0,1,12.959,14.34Zm7.318-9.027C17.543,3.24,18.09,2.771,18.09,2.771,21.3.229,20.824,5.645,20.824,5.645c-.009.022-.019.047-.028.068C20.492,5.474,20.277,5.313,20.277,5.313Z" transform="translate(68.437 21.886)"/><path class="b" d="M3.572.183S.885,5.074.266,6.659c0,0-1.448,4.341,2.411,4.686A4.557,4.557,0,0,0,7.155,6.522s.2-2.169-3.518-4.13l0,0S4.949-.783,3.572.183ZM6.257,7.278s-2,2.688-4.546,1.171c0,0-.963-.55.69-3.791l.311-.572-.106.3S5.776,6.246,6.257,7.278Z" transform="translate(52.29 66.343)"/><path class="b" d="M3.572.182S.885,5.073.266,6.658c0,0-1.448,4.341,2.411,4.686A4.557,4.557,0,0,0,7.155,6.521s.2-2.169-3.518-4.13l0,0S4.949-.781,3.572.182ZM6.26,7.28s-2,2.688-4.546,1.171c0,0-.963-.55.69-3.791l.311-.572-.106.3S5.776,6.248,6.26,7.28Z" transform="translate(26.362 33.57)"/><path class="b" d="M7.626,20.354C12.806,6.289.149,0,.149,0L0,3.7c10.509,7.107,7.032,16.062,7.032,16.062C6.662,21.391,7.626,20.354,7.626,20.354Z" transform="translate(34.344 23.231)"/><path class="b" d="M13.2.6C9.962-2.169,8.517,5.522,8.517,5.522c-.273,2.11-.78,5.817-.78,5.817C5.549,1.616,1.354,1.532,1.354,1.532-.345,1.8.037,5.251.037,5.251.3,5.574,3.054,7.594,3.054,7.594c.41.233.41-.733.41-.733C5.593,9.058,7.19,15.6,7.19,15.6c1.29-.976,1.874-7.147,1.874-7.147C9.884-.258,13.75,5.13,13.75,5.13c.547-.584.584-3.241.584-3.241A5.769,5.769,0,0,0,13.2.6Z" transform="translate(63.88 19.822)"/><path class="b" d="M0,0V39.244H1.24v-38H98.828V98.828H1.24V62.941H0v37.127H100.068V0Z" transform="translate(9.413 0)"/></g></g></svg>