<?xml version="1.0" standalone="no"?>
<!DOCTYPE svg PUBLIC "-//W3C//DTD SVG 20010904//EN"
 "http://www.w3.org/TR/2001/REC-SVG-20010904/DTD/svg10.dtd">
<svg version="1.0" xmlns="http://www.w3.org/2000/svg"
 width="700.000000pt" height="700.000000pt" viewBox="0 0 700.000000 700.000000"
 preserveAspectRatio="xMidYMid meet">
<metadata>
Created by potrace 1.14, written by Peter Selinger 2001-2017
</metadata>
<g transform="translate(0.000000,700.000000) scale(0.100000,-0.100000)"
fill="#000000" stroke="none">
<path d="M649 6415 c-1 0 -2 -505 -3 -1122 -1 -775 1 -1124 9 -1126 5 -3 21
-4 35 -3 l25 1 1 1085 c1 597 2 1087 3 1090 1 3 1258 5 2793 5 2179 0 2794 -3
2798 -12 4 -10 5 -5542 1 -5578 -1 -7 -940 -10 -2796 -10 -1856 0 -2795 3
-2796 10 -1 6 -2 467 -4 1025 -1 558 -3 1017 -4 1020 0 3 -16 6 -34 6 l-33 0
1 -1066 0 -1065 2860 -1 c1573 0 2865 1 2870 3 12 4 17 5732 6 5734 -5 2
-5728 6 -5732 4z"/>
<path d="M3691 5730 c-64 -21 -139 -71 -266 -175 -198 -162 -347 -339 -442
-523 -85 -164 -113 -268 -107 -410 7 -196 107 -301 329 -348 17 -3 82 -7 145
-9 245 -8 349 -27 401 -75 16 -16 29 -32 29 -38 0 -11 -239 -144 -364 -202
-432 -201 -992 -356 -1471 -406 -33 -3 -89 -10 -125 -14 -82 -10 -461 -9 -537
1 -32 4 -91 10 -132 14 -41 3 -77 8 -80 9 -3 2 -28 6 -56 10 -55 7 -75 10
-185 32 -191 38 -451 114 -641 187 -68 26 -100 24 -76 -5 9 -12 400 -263 550
-353 19 -11 67 -41 108 -67 56 -35 94 -51 154 -63 204 -42 371 -59 595 -58
115 0 294 9 337 17 10 2 45 7 78 10 79 10 124 16 155 21 14 3 41 7 60 10 19 3
46 8 60 10 14 3 36 7 50 10 477 89 949 258 1306 466 173 101 236 170 286 313
24 70 27 94 25 176 -3 83 -6 102 -32 150 -54 98 -155 130 -462 145 -214 11
-334 65 -379 172 -21 49 -17 78 18 135 121 201 321 397 526 517 64 37 90 48
138 55 27 5 85 -21 101 -44 8 -11 19 -18 24 -14 16 10 101 146 109 174 15 54
-24 126 -85 158 -53 27 -90 31 -144 12z"/>
<path d="M4414 5270 c-57 -23 -121 -144 -150 -285 -7 -31 -34 -224 -41 -285
-3 -30 -7 -56 -8 -58 -1 -1 -13 35 -25 80 -65 230 -173 400 -287 452 -82 37
-123 -4 -130 -129 l-5 -70 92 -69 c50 -38 92 -67 94 -65 2 2 7 12 12 21 21 39
110 -137 180 -356 20 -64 40 -116 44 -116 24 0 78 204 95 355 13 122 16 143
29 193 39 145 117 178 206 87 19 -19 37 -35 41 -35 10 0 25 69 28 131 2 51 -1
60 -28 92 -31 34 -87 68 -113 66 -7 0 -22 -4 -34 -9z"/>
<path d="M5140 5139 c-57 -34 -101 -81 -126 -134 -32 -66 -30 -103 4 -151 31
-43 119 -124 134 -124 29 0 -253 -293 -382 -396 -95 -76 -322 -243 -557 -409
-100 -71 -180 -131 -178 -133 5 -6 332 164 465 242 256 149 488 356 670 600
l44 59 47 -51 c51 -55 57 -55 78 7 18 54 13 72 -29 112 l-41 39 21 62 c67 203
-17 357 -150 277z m35 -105 c8 -4 22 -19 30 -34 16 -31 30 -134 20 -150 -14
-22 -155 106 -155 139 0 10 15 25 33 34 36 18 48 20 72 11z"/>
<path d="M2079 5018 c0 -35 -1 -82 -2 -105 -1 -40 2 -44 58 -88 200 -154 312
-318 362 -529 12 -52 10 -225 -3 -286 -22 -101 -23 -109 -15 -115 23 -14 68
100 86 215 4 25 9 54 12 65 8 41 4 203 -7 264 -42 232 -194 452 -411 597 -37
24 -69 44 -73 44 -3 0 -6 -28 -7 -62z"/>
<path d="M1822 4478 c-19 -24 -183 -347 -193 -380 -14 -49 -12 -130 4 -170 47
-113 228 -114 326 -3 41 47 58 86 67 152 11 88 -42 176 -149 245 -32 21 -46
36 -43 47 19 66 26 103 21 111 -8 14 -21 13 -33 -2z m65 -323 c87 -66 94 -77
64 -109 -40 -43 -106 -69 -157 -63 -63 7 -94 30 -94 70 0 30 21 98 50 159 13
27 13 27 42 10 16 -9 59 -39 95 -67z"/>
<path d="M5091 4064 l-84 -85 77 -76 c42 -42 76 -79 76 -83 0 -3 -34 -39 -75
-80 l-75 -75 77 -77 c42 -43 75 -80 72 -82 -2 -3 -37 -39 -78 -80 l-74 -74 86
-86 c48 -47 90 -86 94 -86 5 0 46 38 93 85 l85 85 -79 79 -79 80 76 76 c42 42
77 78 77 80 0 2 -34 38 -76 80 l-76 77 78 79 79 79 -85 85 c-47 47 -89 85 -95
85 -5 -1 -48 -39 -94 -86z"/>
<path d="M4108 3665 c-1 -1 -24 -5 -49 -8 -85 -10 -198 -46 -282 -88 -95 -49
-295 -195 -415 -304 -90 -81 -109 -99 -227 -213 -140 -136 -221 -212 -324
-302 -40 -36 -79 -70 -85 -75 -68 -65 -221 -155 -302 -178 -132 -39 -264 17
-317 133 -25 56 -30 178 -9 270 16 76 74 226 110 288 27 48 24 62 -12 42 -32
-17 -98 -149 -131 -265 -36 -122 -45 -304 -20 -390 25 -89 61 -153 121 -215
123 -130 241 -148 407 -63 27 13 51 22 54 20 2 -3 -3 -31 -11 -63 -28 -111
-38 -275 -23 -409 33 -309 215 -491 495 -496 146 -2 224 18 407 106 140 67
361 216 460 310 324 307 390 398 411 565 3 25 7 56 9 70 2 14 4 45 4 70 l1 45
83 34 c45 19 121 54 169 78 48 23 90 43 92 43 2 0 3 -8 2 -17 -4 -29 15 -116
34 -153 24 -47 88 -104 133 -119 52 -17 145 -20 200 -5 61 16 139 66 176 113
16 20 50 71 76 115 l48 79 15 -29 c79 -153 271 -229 417 -165 202 90 257 500
95 708 l-18 23 -7 -28 c-4 -15 -9 -38 -11 -51 -3 -12 -11 -51 -19 -85 -30
-130 -30 -130 14 -189 23 -30 41 -59 41 -64 0 -18 -97 -36 -158 -30 -157 17
-257 93 -238 182 2 11 14 51 27 88 15 45 19 71 12 78 -14 14 -65 -41 -104
-115 -85 -162 -178 -269 -266 -307 -61 -26 -180 -36 -225 -19 -103 40 -156
119 -144 212 4 26 9 55 12 63 14 35 -33 23 -170 -44 -80 -39 -148 -71 -151
-71 -4 0 -25 -9 -48 -19 -61 -27 -145 -56 -149 -51 -2 3 -21 41 -42 84 -71
143 -196 251 -302 261 -77 8 -137 -18 -210 -89 -73 -72 -118 -147 -138 -234
-29 -125 -3 -233 72 -307 77 -74 258 -90 467 -41 85 20 82 20 94 -17 26 -79
24 -82 -150 -256 -256 -254 -531 -433 -789 -512 -60 -19 -99 -23 -195 -24 -66
0 -133 3 -150 7 -63 16 -155 69 -188 111 -78 96 -100 177 -101 372 -1 204 5
239 46 273 37 30 119 106 248 229 47 44 105 100 129 123 25 23 109 102 186
176 230 218 377 328 541 405 106 50 182 69 279 70 123 1 202 -19 290 -76 49
-31 118 -99 127 -126 9 -23 19 -4 39 72 28 108 26 158 -12 205 -98 125 -205
177 -386 188 -34 3 -63 3 -65 1z m-127 -850 c17 -9 51 -35 76 -58 55 -51 48
-55 -82 -56 -107 -1 -161 10 -188 38 -18 17 -19 24 -9 46 25 54 127 69 203 30z"/>
<path d="M3296 2571 c-55 -86 -176 -340 -185 -384 -16 -89 5 -159 62 -201 44
-33 147 -30 209 6 61 37 104 93 122 161 33 125 -4 194 -165 308 -21 15 -22 17
-8 60 8 24 14 50 13 57 -1 6 -2 17 -3 22 -2 21 -22 9 -45 -29z m77 -294 c37
-27 72 -58 79 -70 9 -18 6 -25 -23 -50 -67 -56 -137 -71 -204 -43 -32 14 -35
18 -35 59 0 43 14 89 47 154 19 36 12 38 136 -50z"/>
</g>
</svg>
